<svg clip-rule="evenodd" fill-rule="evenodd" height="143.691mm" image-rendering="optimizeQuality" shape-rendering="geometricPrecision" text-rendering="geometricPrecision" viewBox="0 0 15483 14369" width="154.834mm" xmlns="http://www.w3.org/2000/svg"><path d="m9101 6624c-771 37-1669-1010-923-1840 443-404 952-287 1319 78 725 721 650 1970-459 2258-5-4-9-8-14-12 751-255 936-1487 68-1516-619-33-511 818 9 1032zm41 1623c3 4-296 266-331 551-132-14-314 55-293-161 28-283 379-390 624-390zm42 56c154 159 264 211 433 223-24 100-61 358-27 509-204 56-410 137-652-112-38-262 125-508 246-620zm496 221c193 9 257-46 344-84 160 79 447 424 341 576-154 221-451 107-629 31-9-177-28-349-56-523zm612-830c-145 353 788 861 267 1362 47-305-271-591-554-726-275 101-529 140-741-93 937-122 330-701-60-934 638-142 966-759 975-1575 429 867 255 1498 113 1966zm302-2810c-149-415 296-649 594-738-151 297-92 690 118 915-120-12-259-22-347-127-155 110-326 30-365-50zm-5500 4032c-162 80-509 113-849 2-340-112-759 120-696 209l50 71c27 39-83 105-78 158 12 136 172 332 280 168 62-94 165-394 482-434 318-41 654 79 811-174zm850-3086c-263-398-417-875-417-1387 0-112 8-222 22-330 586-717 1405-725 2371-371-1161 220-1755 1154-1976 2088zm2537 1091c-142 25-288 38-437 38-743 0-1411-322-1872-834 121-1061 801-2062 2196-1864 0 2 0 4 1 6-469 244-789 735-789 1301 0 609 371 1131 901 1353zm-2980 230c865 449 2182 445 2941 73-13 0-26-1-39-2-118 15-238 23-359 23-752 0-1435-297-1938-779-60 308-273 555-605 685zm-1351-1606c-293-887 418-1793 1231-1975-90 275-139 485-139 873s74 848 280 1238c-382-88-582-36-847 267 33-243 37-443-82-634zm43 196c-221 257-461 917-460 1276 58-49 151-207 183-268 58 177-43 330-65 366 172 136 412 231 608 179-159-74-273-264-211-449 467-493 977 178 627 434l-157 9c107 167 217 156 423 167-6-181-21-304 291-483 1051-582 85-1444-476-1065l-470 392c29-146 151-500 43-761zm-153 826c-4-157 18-327 128-521 62 50 93 142 65 222zm3593-4955c-264-689 550-871 1049-535 460 281 359-322 71-592-269-253-677-375-1138-351 683-330 1430 14 2058 339l-293 147c281 769-332 1053-745 793-284-186-813-389-1002 199zm726-854c-436-329-1698-104-1344 904 307 874 1764 595 1907 150-1678 819-2089-1239-563-1054zm7 1637c657-536 1847-628 2226 277 171 459 709 266 1113 358-258 268-100 536 258 682-75 457-719 654-351 1369-538-304-423-834-243-1105 129-214-53-155-161-338-478-97-527 83-880 54-47-842-586-1585-1962-1297zm-50 269c153 498-39 973-314 1326 542-34 1081 143 1441 576 182-222 195-668 222-934 158 288-34 634 167 921 210 256 641-537 1283-646-293-165-650 127-948 63-93-400-122-1042-838-1370 176 458 199 1283 79 1559-375-442-106-1518-1092-1495zm-581 4988c-333 427 4 573-54 930-457-209-1348-454-1960 608 26 137 199 243 397 341-308 195-520 127-742-5-347 304-656 149-946 52-184-42-408 29-500 209-140-431 353-649 582-629 470 59 1049-196 944-918 372-160 546-195 525-678 552 143 1078 165 1754 90z" fill="#faab19"/><g fill="#fff" fill-rule="nonzero"><path d="m12636 10591h2847l-196 946h-1711l-98 460h1452l-180 879h-1453l-294 1405h-1137z"/><path d="m11514 13103c-79 427-238 745-478 953-239 209-586 313-1041 313-234 0-429-28-584-85s-279-131-372-222c-93-92-159-195-199-311-40-115-60-231-60-348 0-90 9-198 26-326 18-127 40-243 68-346h1018c-11 69-28 152-52 250-24 99-36 182-36 251 0 79 20 142 62 189 41 46 101 69 181 69 100 0 172-26 217-80 45-53 76-126 93-219l553-2600h1137z"/><path d="m8357 13103c-80 427-239 745-478 953-240 209-587 313-1042 313-234 0-429-28-584-85s-279-131-372-222c-93-92-159-195-199-311-39-115-59-231-59-348 0-90 8-198 26-326 17-127 39-243 67-346h1018c-10 69-28 152-52 250-24 99-36 182-36 251 0 79 21 142 62 189 41 46 102 69 181 69 100 0 172-26 217-80 45-53 76-126 93-219l553-2600h1137z"/><path d="m2486 10591h1896c400 0 684 69 851 207s250 339 250 605c0 472-225 768-677 889h-5v10c172 38 308 127 408 269 100 141 150 298 150 470 0 224-41 414-124 571-82 157-194 284-333 382-140 99-302 171-486 217-184 47-376 70-576 70h-2119zm527 2812h729c237 0 480-99 480-372 0-270-216-316-439-316h-625zm284-1375h641c181 0 408-72 408-295 0-218-164-263-351-263h-584z"/><path d="m765 10591h1137l-765 3690h-1137z"/></g></svg>